<?xml version="1.0" encoding="utf-8"?>
<!-- Generator: Adobe Illustrator 17.0.0, SVG Export Plug-In . SVG Version: 6.00 Build 0)  -->
<!DOCTYPE svg PUBLIC "-//W3C//DTD SVG 1.1//EN" "http://www.w3.org/Graphics/SVG/1.1/DTD/svg11.dtd">
<svg version="1.1" id="Capa_1" xmlns="http://www.w3.org/2000/svg" xmlns:xlink="http://www.w3.org/1999/xlink" x="0px" y="0px"
	 width="15.589px" height="20.785px" viewBox="0 0 15.589 20.785" enable-background="new 0 0 15.589 20.785" xml:space="preserve">
<path d="M10.939,10.509c0-0.12-0.02-0.235-0.034-0.35V6.445c0.471-0.104,0.823-0.522,0.823-1.024c0-0.581-0.47-1.05-1.049-1.05
	H7.742C7.628,3.776,7.13,3.318,6.501,3.318c-0.628,0-1.127,0.458-1.241,1.053H4.909c-0.58,0-1.05,0.469-1.05,1.05
	c0,0.502,0.354,0.92,0.824,1.024v3.714c-0.015,0.114-0.036,0.229-0.036,0.35L0,18.129c0,1.467,1.188,2.656,2.656,2.656h10.276
	c1.467,0,2.656-1.189,2.656-2.656L10.939,10.509z M4.525,16.645c-0.61,0-1.105-0.495-1.105-1.104c0-0.61,0.495-1.105,1.105-1.105
	c0.609,0,1.104,0.495,1.104,1.105C5.63,16.15,5.135,16.645,4.525,16.645z M7.711,18.652c-0.539,0-0.975-0.437-0.975-0.976
	c0-0.538,0.437-0.975,0.975-0.975s0.975,0.437,0.975,0.975C8.686,18.215,8.25,18.652,7.711,18.652z M8.317,14.459
	c-0.899,0-1.628-0.729-1.628-1.627s0.729-1.628,1.628-1.628c0.898,0,1.627,0.729,1.627,1.628S9.216,14.459,8.317,14.459z
	 M9.502,1.588c0.483,0,0.875,0.392,0.875,0.875S9.985,3.338,9.502,3.338S8.627,2.946,8.627,2.463S9.019,1.588,9.502,1.588z M6.98,0
	c0.426,0,0.771,0.345,0.771,0.771S7.406,1.542,6.98,1.542S6.209,1.197,6.209,0.771S6.554,0,6.98,0z"/>
</svg>
